<?xml version="1.0" encoding="UTF-8"?>
<svg xmlns="http://www.w3.org/2000/svg" xmlns:xlink="http://www.w3.org/1999/xlink" width="56.243pt" height="54.884pt" viewBox="0 0 56.243 54.884" version="1.1">
<defs>
<clipPath id="clip1">
  <path d="M 0 0 L 56.242188 0 L 56.242188 54.882812 L 0 54.882812 Z M 0 0 "/>
</clipPath>
</defs>
<g id="surface1">
<g clip-path="url(#clip1)" clip-rule="nonzero">
<path style="fill-rule:evenodd;fill:rgb(0%,0%,0%);fill-opacity:1;stroke-width:0.4;stroke-linecap:butt;stroke-linejoin:round;stroke:rgb(0%,0%,0%);stroke-opacity:1;stroke-miterlimit:10;" d="M 261.863719 697.864063 C 266.090281 696.575 270.559031 698.957813 271.848094 703.184375 C 273.137156 707.410938 270.754344 711.879688 266.527781 713.16875 C 262.301219 714.457813 257.832469 712.075 256.543406 707.848438 C 255.254344 703.621875 257.637156 699.153125 261.863719 697.864063 M 280.973094 698.996875 L 288.398875 691.297656 L 283.219187 684.754688 L 274.38325 690.676563 L 269.559031 688.332813 L 268.371531 677.54375 L 260.023875 677.516406 L 258.949656 688.297656 L 254.105906 690.610156 L 245.129344 684.629688 L 239.902781 691.1375 L 247.461375 698.883594 L 246.250438 704.110156 L 236.176219 707.219531 L 238.00825 715.360156 L 248.578563 714.465625 L 251.910594 718.672656 L 248.25825 728.301563 L 255.762156 731.946094 L 261.453562 723.305469 L 266.82075 723.325 L 272.269969 732.000781 L 279.801219 728.403125 L 276.394969 718.750781 L 279.754344 714.567188 L 290.137156 715.532031 L 292.019969 707.403125 L 282.148875 704.23125 Z M 280.973094 698.996875 " transform="matrix(1,0,0,-1,-235.977,732.2)"/>
</g>
</g>
</svg>
